<?xml version="1.0" encoding="UTF-8"?>
<!-- Generator: Adobe Illustrator 16.0.4, SVG Export Plug-In . SVG Version: 6.00 Build 0)  -->
<!DOCTYPE svg PUBLIC "-//W3C//DTD SVG 1.1//EN" "http://www.w3.org/Graphics/SVG/1.1/DTD/svg11.dtd">
<svg version="1.1" id="Layer_1" xmlns="http://www.w3.org/2000/svg" xmlns:xlink="http://www.w3.org/1999/xlink" x="0px" y="0px" width="300px" height="300px" viewBox="0 0 300 300" enable-background="new 0 0 300 300" xml:space="preserve">
<g>
	<g>
		<path fill="#1F80CE" d="M155.945,191.609v-86.481c0-1.142-0.926-2.067-2.066-2.067h-31.188c-1.142,0-2.066,0.926-2.066,2.067    v69.647c7.171,7.751,15.827,14.211,25.642,18.9h7.613C155.02,193.676,155.945,192.75,155.945,191.609z"/>
	</g>
	<g>
		<path fill="#1F80CE" d="M241.234,90.741h-31.188c-1.143,0-2.066,0.926-2.066,2.067v98.801c0,1.143,0.927,2.066,2.066,2.066h9.547    c8.791-4.209,16.82-9.902,23.707-16.836V92.809C243.303,91.667,242.377,90.741,241.234,90.741z"/>
	</g>
	<g>
		<path fill="#1F80CE" d="M197.557,124.682h-31.186c-1.143,0-2.066,0.926-2.066,2.066v64.861c0,1.143,0.924,2.066,2.066,2.066    h31.186c1.144,0,2.067-0.926,2.067-2.066v-64.861C199.624,125.607,198.698,124.682,197.557,124.682z"/>
	</g>
	<g>
		<g>
			<g>
				<path fill="#2C3E4F" d="M182.874,44.01c4.995,0,10.037,0.523,14.984,1.553c19.086,3.981,35.479,15.154,46.16,31.462      c10.679,16.306,14.368,35.791,10.389,54.868c-3.444,16.518-12.565,31.424-25.683,41.97      c-12.951,10.412-29.174,16.146-45.681,16.146c-4.995,0-10.035-0.522-14.978-1.552c-39.398-8.219-64.767-46.952-56.55-86.345      c3.44-16.511,12.561-31.412,25.68-41.958C150.148,49.744,166.37,44.01,182.874,44.01 M182.874,32.01      c-39.404,0-74.75,27.561-83.105,67.655c-9.584,45.948,19.908,90.957,65.847,100.54c5.846,1.218,11.684,1.805,17.428,1.805      c39.412,0,74.749-27.562,83.11-67.667c9.582-45.927-19.894-90.943-65.846-100.527C194.458,32.597,188.623,32.01,182.874,32.01      L182.874,32.01z"/>
			</g>
		</g>
	</g>
	<g>
		<g>
			<g>
				<path fill="#2C3E4F" d="M183.02,12c27.329,0,53.228,10.476,72.925,29.499c19.738,19.062,31.103,44.664,32,72.086      c0.91,28.041-9.152,54.759-28.335,75.23s-45.19,32.249-73.222,33.163c-1.162,0.037-2.332,0.056-3.479,0.056      c-27.331,0-53.231-10.477-72.928-29.501c-19.741-19.066-31.104-44.676-31.995-72.113c-0.917-28.026,9.143-54.734,28.325-75.204      c19.184-20.471,45.19-32.248,73.228-33.16C180.718,12.019,181.856,12,183.02,12 M183.02,0c-1.289,0-2.571,0.021-3.869,0.063      C114.551,2.164,63.879,56.239,65.992,120.812c2.057,63.311,54.044,113.222,116.917,113.222c1.283,0,2.566-0.021,3.859-0.062      c64.603-2.106,115.269-56.174,113.17-120.777C297.868,49.913,245.895,0,183.02,0L183.02,0z"/>
			</g>
		</g>
	</g>
</g>
<g>
	<g>
		<g>
			<g>
				<path fill="#2C3E4F" d="M61.73,288.711l53.003-55.593l-52.096-48.812L9.646,239.908c-13.48,14.385-12.741,36.979,1.643,50.445      C25.668,303.834,48.265,303.094,61.73,288.711z"/>
			</g>
		</g>
	</g>
</g>
<line fill="none" stroke="#2C3E4F" stroke-width="12" stroke-linejoin="round" stroke-miterlimit="10" x1="95.457" y1="229.261" x2="116.087" y2="207.225"/>
<line fill="none" stroke="#2C3E4F" stroke-width="12" stroke-linejoin="round" stroke-miterlimit="10" x1="89.725" y1="179.692" x2="67.681" y2="203.236"/>
</svg>