<?xml version="1.0" encoding="UTF-8" standalone="no"?>
<!DOCTYPE svg PUBLIC "-//W3C//DTD SVG 1.1//EN" "http://www.w3.org/Graphics/SVG/1.1/DTD/svg11.dtd">
<svg width="100%" height="100%" viewBox="0 0 39 8" version="1.1" xmlns="http://www.w3.org/2000/svg" xmlns:xlink="http://www.w3.org/1999/xlink" xml:space="preserve" xmlns:serif="http://www.serif.com/" style="fill-rule:evenodd;clip-rule:evenodd;stroke-linejoin:round;stroke-miterlimit:1.41421;">
    <g id="databrnocz_logo">
        <g>
            <path d="M6.774,7.749c-0.03,0 -0.054,-0.009 -0.072,-0.027c-0.017,-0.017 -0.026,-0.041 -0.026,-0.071l0,-4.378c0,-0.03 0.009,-0.054 0.026,-0.072c0.018,-0.017 0.042,-0.026 0.072,-0.026l1.548,0c0.453,0 0.815,0.119 1.085,0.356c0.27,0.238 0.405,0.555 0.405,0.951l0,1.96c0,0.396 -0.135,0.713 -0.405,0.95c-0.27,0.238 -0.632,0.357 -1.085,0.357l-1.548,0Zm0.529,-0.575c0,0.021 0.011,0.032 0.033,0.032l1.013,0c0.252,0 0.454,-0.077 0.604,-0.232c0.15,-0.154 0.228,-0.362 0.232,-0.624l0,-1.777c0,-0.261 -0.075,-0.469 -0.226,-0.624c-0.15,-0.154 -0.353,-0.232 -0.61,-0.232l-1.013,0c-0.022,0 -0.033,0.011 -0.033,0.033l0,3.424Z" style="fill:#26495e;fill-rule:nonzero;"/>
            <path d="M13.327,7.749c-0.057,0 -0.094,-0.027 -0.111,-0.079l-0.229,-0.732c-0.008,-0.017 -0.019,-0.026 -0.032,-0.026l-1.823,0c-0.013,0 -0.024,0.009 -0.033,0.026l-0.229,0.732c-0.017,0.052 -0.054,0.079 -0.111,0.079l-0.463,0c-0.075,0 -0.101,-0.038 -0.079,-0.112l1.411,-4.383c0.018,-0.053 0.055,-0.079 0.111,-0.079l0.601,0c0.057,0 0.094,0.026 0.111,0.079l1.425,4.383c0.004,0.009 0.006,0.022 0.006,0.04c0,0.048 -0.028,0.072 -0.085,0.072l-0.47,0Zm-2.058,-1.372c-0.004,0.026 0.004,0.039 0.026,0.039l1.496,0c0.026,0 0.035,-0.013 0.026,-0.039l-0.758,-2.437c-0.004,-0.018 -0.01,-0.027 -0.019,-0.027c-0.009,0 -0.015,0.009 -0.02,0.027l-0.751,2.437Z" style="fill:#26495e;fill-rule:nonzero;"/>
            <path d="M17.044,3.175c0.031,0 0.055,0.009 0.072,0.026c0.018,0.018 0.026,0.042 0.026,0.072l0,0.353c0,0.031 -0.008,0.054 -0.026,0.072c-0.017,0.017 -0.041,0.026 -0.072,0.026l-1.215,0c-0.022,0 -0.032,0.011 -0.032,0.033l0,3.894c0,0.03 -0.009,0.054 -0.027,0.071c-0.017,0.018 -0.041,0.027 -0.071,0.027l-0.432,0c-0.03,0 -0.054,-0.009 -0.072,-0.027c-0.017,-0.017 -0.026,-0.041 -0.026,-0.071l0,-3.894c0,-0.022 -0.011,-0.033 -0.032,-0.033l-1.157,0c-0.03,0 -0.054,-0.009 -0.072,-0.026c-0.017,-0.018 -0.026,-0.041 -0.026,-0.072l0,-0.353c0,-0.03 0.009,-0.054 0.026,-0.072c0.018,-0.017 0.042,-0.026 0.072,-0.026l3.064,0Z" style="fill:#26495e;fill-rule:nonzero;"/>
            <path d="M20.337,7.749c-0.056,0 -0.093,-0.027 -0.111,-0.079l-0.229,-0.732c-0.008,-0.017 -0.019,-0.026 -0.032,-0.026l-1.823,0c-0.013,0 -0.024,0.009 -0.033,0.026l-0.228,0.732c-0.018,0.052 -0.055,0.079 -0.111,0.079l-0.464,0c-0.074,0 -0.1,-0.038 -0.079,-0.112l1.412,-4.383c0.017,-0.053 0.054,-0.079 0.111,-0.079l0.601,0c0.056,0 0.093,0.026 0.111,0.079l1.424,4.383c0.004,0.009 0.006,0.022 0.006,0.04c0,0.048 -0.028,0.072 -0.084,0.072l-0.471,0Zm-2.058,-1.372c-0.004,0.026 0.005,0.039 0.026,0.039l1.496,0c0.027,0 0.035,-0.013 0.027,-0.039l-0.758,-2.437c-0.005,-0.018 -0.011,-0.027 -0.02,-0.027c-0.009,0 -0.015,0.009 -0.019,0.027l-0.752,2.437Z" style="fill:#26495e;fill-rule:nonzero;"/>
            <circle cx="21.696" cy="7.435" r="0.316" style="fill:#26495e;"/>
            <path d="M24.767,5.364c-0.009,0.004 -0.013,0.009 -0.013,0.013c0,0.004 0.004,0.009 0.013,0.013c0.235,0.1 0.417,0.246 0.546,0.438c0.128,0.191 0.192,0.42 0.192,0.686c0,0.383 -0.121,0.685 -0.362,0.905c-0.242,0.22 -0.561,0.33 -0.957,0.33l-1.536,0c-0.021,0 -0.04,-0.008 -0.055,-0.023c-0.015,-0.016 -0.023,-0.034 -0.023,-0.056l0,-4.416c0,-0.022 0.008,-0.041 0.023,-0.056c0.015,-0.015 0.034,-0.023 0.055,-0.023l1.49,0c0.405,0 0.725,0.105 0.96,0.314c0.235,0.209 0.353,0.499 0.353,0.869c0,0.244 -0.059,0.451 -0.176,0.62c-0.118,0.17 -0.288,0.299 -0.51,0.386Zm-1.823,-1.882c-0.017,0 -0.026,0.009 -0.026,0.026l0,1.712c0,0.018 0.009,0.026 0.026,0.026l1.196,0c0.296,0 0.532,-0.079 0.709,-0.238c0.176,-0.159 0.264,-0.369 0.264,-0.631c0,-0.27 -0.088,-0.486 -0.264,-0.65c-0.177,-0.163 -0.413,-0.245 -0.709,-0.245l-1.196,0Zm1.242,3.953c0.296,0 0.532,-0.086 0.708,-0.258c0.177,-0.172 0.265,-0.4 0.265,-0.683c0,-0.292 -0.091,-0.524 -0.274,-0.696c-0.183,-0.172 -0.427,-0.258 -0.732,-0.258l-1.209,0c-0.017,0 -0.026,0.009 -0.026,0.026l0,1.843c0,0.017 0.009,0.026 0.026,0.026l1.242,0Z" style="fill:#26495e;fill-rule:nonzero;"/>
            <path d="M29.406,7.749c-0.039,0 -0.07,-0.02 -0.092,-0.059l-1.006,-2.078c-0.004,-0.013 -0.013,-0.019 -0.026,-0.019l-1.228,0c-0.018,0 -0.026,0.008 -0.026,0.026l0,2.051c0,0.022 -0.008,0.04 -0.023,0.056c-0.015,0.015 -0.034,0.023 -0.056,0.023l-0.189,0c-0.022,0 -0.041,-0.008 -0.056,-0.023c-0.015,-0.016 -0.023,-0.034 -0.023,-0.056l0,-4.429c0,-0.022 0.008,-0.041 0.023,-0.056c0.015,-0.015 0.034,-0.023 0.056,-0.023l1.633,0c0.366,0 0.661,0.113 0.885,0.34c0.225,0.226 0.337,0.523 0.337,0.888c0,0.314 -0.086,0.576 -0.258,0.788c-0.172,0.211 -0.402,0.34 -0.69,0.388c-0.021,0.009 -0.028,0.02 -0.019,0.033l0.999,2.058c0.009,0.017 0.014,0.031 0.014,0.039c0,0.035 -0.024,0.053 -0.072,0.053l-0.183,0Zm-2.352,-4.273c-0.018,0 -0.026,0.008 -0.026,0.026l0,1.777c0,0.017 0.008,0.026 0.026,0.026l1.306,0c0.27,0 0.489,-0.084 0.657,-0.251c0.168,-0.168 0.252,-0.387 0.252,-0.657c0,-0.279 -0.084,-0.502 -0.252,-0.67c-0.168,-0.167 -0.387,-0.251 -0.657,-0.251l-1.306,0Z" style="fill:#26495e;fill-rule:nonzero;"/>
            <path d="M30.758,7.749c-0.022,0 -0.04,-0.008 -0.055,-0.023c-0.016,-0.016 -0.023,-0.034 -0.023,-0.056l0,-4.416c0,-0.022 0.007,-0.041 0.023,-0.056c0.015,-0.015 0.033,-0.023 0.055,-0.023l0.196,0c0.044,0 0.074,0.018 0.092,0.052l2.345,3.803c0.004,0.013 0.011,0.018 0.02,0.016c0.008,-0.002 0.013,-0.01 0.013,-0.023l0,-3.769c0,-0.022 0.007,-0.041 0.023,-0.056c0.015,-0.015 0.033,-0.023 0.055,-0.023l0.19,0c0.021,0 0.04,0.008 0.055,0.023c0.015,0.015 0.023,0.034 0.023,0.056l0,4.416c0,0.022 -0.008,0.04 -0.023,0.056c-0.015,0.015 -0.034,0.023 -0.055,0.023l-0.196,0c-0.044,0 -0.074,-0.018 -0.092,-0.053l-2.345,-3.809c-0.005,-0.013 -0.011,-0.018 -0.02,-0.016c-0.009,0.002 -0.013,0.01 -0.013,0.023l0,3.776c0,0.022 -0.008,0.04 -0.023,0.056c-0.015,0.015 -0.034,0.023 -0.055,0.023l-0.19,0Z" style="fill:#26495e;fill-rule:nonzero;"/>
            <path d="M36.462,7.801c-0.301,0 -0.565,-0.062 -0.794,-0.186c-0.229,-0.125 -0.405,-0.299 -0.529,-0.523c-0.124,-0.224 -0.187,-0.482 -0.187,-0.774l0,-1.712c0,-0.292 0.063,-0.55 0.187,-0.774c0.124,-0.224 0.3,-0.399 0.529,-0.523c0.229,-0.124 0.493,-0.186 0.794,-0.186c0.3,0 0.566,0.062 0.797,0.186c0.231,0.124 0.409,0.299 0.535,0.523c0.127,0.224 0.19,0.482 0.19,0.774l0,1.712c0,0.292 -0.063,0.55 -0.19,0.774c-0.126,0.224 -0.304,0.398 -0.535,0.523c-0.231,0.124 -0.497,0.186 -0.797,0.186Zm0,-0.301c0.352,0 0.637,-0.106 0.852,-0.32c0.216,-0.213 0.324,-0.496 0.324,-0.849l0,-1.732c0,-0.348 -0.108,-0.63 -0.324,-0.846c-0.215,-0.215 -0.5,-0.323 -0.852,-0.323c-0.349,0 -0.63,0.108 -0.843,0.323c-0.214,0.216 -0.32,0.498 -0.32,0.846l0,1.732c0,0.353 0.106,0.636 0.32,0.849c0.213,0.214 0.494,0.32 0.843,0.32Z" style="fill:#26495e;fill-rule:nonzero;"/>
        </g>
        <path d="M3.208,7.807l-0.533,0c-0.438,0 -0.793,-0.355 -0.793,-0.793c0,-1.761 0,-5.836 0,-5.836c0,0 0.34,0 0.675,0c0.359,0 0.651,0.291 0.651,0.65l0,5.979Zm0.464,-4.641c0,0 0.34,0 0.675,0c0.173,0 0.338,0.069 0.46,0.191c0.122,0.122 0.191,0.287 0.191,0.46c0,0.87 0,2.404 0,3.274c0,0.172 -0.069,0.338 -0.191,0.46c-0.122,0.122 -0.287,0.19 -0.46,0.19c-0.335,0 -0.675,0 -0.675,0l0,-4.575Zm-2.254,-3.049l0,7.624c0,0 -0.34,0 -0.676,0c-0.359,0 -0.65,-0.291 -0.65,-0.65c0,-1.44 0,-4.884 0,-6.324c0,-0.359 0.291,-0.65 0.65,-0.65l0.676,0Z" style="fill:url(#_Linear1);"/>
    </g>
    <defs>
        <linearGradient id="_Linear1" x1="0" y1="0" x2="1" y2="0" gradientUnits="userSpaceOnUse" gradientTransform="matrix(4.90601,0,0,7.6905,0.091572,3.96207)"><stop offset="0" style="stop-color:#dc3936;stop-opacity:1"/><stop offset="1" style="stop-color:#26495e;stop-opacity:1"/></linearGradient>
    </defs>
</svg>
